<svg id="Group_10772" data-name="Group 10772" xmlns="http://www.w3.org/2000/svg" width="32.467" height="31.806" viewBox="0 0 32.467 31.806">
  <g id="Group_10771" data-name="Group 10771" transform="translate(0 0)">
    <circle id="Ellipse_37" data-name="Ellipse 37" cx="3.935" cy="3.935" r="3.935" transform="translate(7.564 23.917)" fill="#afafaf"/>
    <path id="Path_6948" data-name="Path 6948" d="M268.968,324.2h0a3.973,3.973,0,1,0,3.565,3.565A3.973,3.973,0,0,0,268.968,324.2Z" transform="translate(-244.861 -300.317)" fill="#afafaf"/>
    <path id="Path_6949" data-name="Path 6949" d="M32.206,13.33a1.032,1.032,0,0,0-.879-.458H26.972V12.8a8.367,8.367,0,1,0-16.734,0h0v.076H6.991L5.883,7.829A1.146,1.146,0,0,0,4.776,6.95H0V9.242H3.859L7.412,25.556a1.108,1.108,0,0,0,1.108.917H28.5a1.146,1.146,0,0,0,1.108-.879l2.827-11.309A1.07,1.07,0,0,0,32.206,13.33Zm-13.6,5.54A6.074,6.074,0,1,1,24.68,12.8,6.075,6.075,0,0,1,18.606,18.87Z" transform="translate(0 -4.428)" fill="#afafaf"/>
    <path id="Path_6950" data-name="Path 6950" d="M190.624,71.194l-2.1-2.139-1.643,1.6,2.9,2.942a1.146,1.146,0,0,0,.8.344,1.07,1.07,0,0,0,.8-.306l4.814-4.546-1.566-1.681Z" transform="translate(-172.935 -62.712)" fill="#afafaf"/>
  </g>
</svg>
