<svg id="call" xmlns="http://www.w3.org/2000/svg" width="15.281" height="15.281" viewBox="0 0 15.281 15.281">
  <g id="Group_898" data-name="Group 898">
    <path id="Path_354" data-name="Path 354" d="M14.055,10.03A8.676,8.676,0,0,1,11.33,9.6a1.245,1.245,0,0,0-1.211.255L8.4,11.149A9.5,9.5,0,0,1,4.132,6.88L5.391,5.207a1.235,1.235,0,0,0,.3-1.251,8.689,8.689,0,0,1-.436-2.729A1.228,1.228,0,0,0,4.033,0H1.226A1.228,1.228,0,0,0,0,1.226,14.071,14.071,0,0,0,14.055,15.281a1.228,1.228,0,0,0,1.226-1.226v-2.8A1.228,1.228,0,0,0,14.055,10.03Z" fill="#a1a9b7"/>
  </g>
</svg>
