<svg id="envelope_1_" data-name="envelope(1)" xmlns="http://www.w3.org/2000/svg" width="18.807" height="14.105" viewBox="0 0 18.807 14.105">
  <g id="Group_897" data-name="Group 897">
    <g id="Group_896" data-name="Group 896" transform="translate(0 0)">
      <path id="Path_352" data-name="Path 352" d="M7.052,65.144c2.581,2.186,7.11,6.032,8.441,7.231a.786.786,0,0,0,1.138,0c1.332-1.2,5.861-5.046,8.443-7.232a.392.392,0,0,0,.055-.541A1.556,1.556,0,0,0,23.9,64H8.227A1.556,1.556,0,0,0,7,64.6.392.392,0,0,0,7.052,65.144Z" transform="translate(-6.66 -64)" fill="#a1a9b7"/>
      <path id="Path_353" data-name="Path 353" d="M18.579,126.448a.39.39,0,0,0-.418.057c-2.862,2.427-6.516,5.537-7.665,6.573a1.587,1.587,0,0,1-2.187,0c-1.225-1.1-5.328-4.591-7.664-6.572a.392.392,0,0,0-.645.3v9.853a1.569,1.569,0,0,0,1.567,1.567H17.239a1.569,1.569,0,0,0,1.567-1.567V126.8A.392.392,0,0,0,18.579,126.448Z" transform="translate(0 -124.119)" fill="#a1a9b7"/>
    </g>
  </g>
</svg>
