<svg xmlns="http://www.w3.org/2000/svg" width="22.355" height="13.757" viewBox="0 0 22.355 13.757">
  <g id="_211660_email_icon" data-name="211660_email_icon" transform="translate(-48 -128)">
    <path id="Path_6952" data-name="Path 6952" d="M54.318,129.112c.591.312,8.8,4.788,9.109,4.949a2.685,2.685,0,0,0,2.2,0c.306-.161,8.517-4.638,9.109-4.949.22-.113.591-.317.672-.548.14-.408-.011-.564-.607-.564H54.254c-.6,0-.747.161-.607.564C53.727,128.8,54.1,129,54.318,129.112Z" transform="translate(-5.297)" fill="#fa7400"/>
    <path id="Path_6953" data-name="Path 6953" d="M69.909,151.559c-.441.226-4.4,3.042-7.013,4.734l4.417,4.971c.107.107.156.236.1.3s-.2.027-.317-.075l-5.3-4.471c-.8.516-1.365.871-1.462.924a2.685,2.685,0,0,1-2.2,0c-.1-.054-.661-.408-1.462-.924l-5.3,4.471c-.107.107-.253.14-.317.075s-.016-.193.091-.3l4.412-4.971c-2.617-1.693-6.615-4.509-7.056-4.734-.473-.242-.5.043-.5.263v11.016a1.451,1.451,0,0,0,1.263,1.123H69.2a1.334,1.334,0,0,0,1.155-1.123V151.822C70.355,151.6,70.387,151.317,69.909,151.559Z" transform="translate(0 -22.205)" fill="#fa7400"/>
  </g>
</svg>
