<svg xmlns="http://www.w3.org/2000/svg" width="19.055" height="16.747" viewBox="0 0 19.055 16.747">
  <g id="portfolio_1_" data-name="portfolio(1)" transform="translate(0)">
    <path id="Path_343" data-name="Path 343" d="M211,240h3.349v1.116H211Zm0,0" transform="translate(-203.147 -231.068)" fill="#a1a9b7"/>
    <path id="Path_344" data-name="Path 344" d="M15.459,84.578h-3.14v.558a.558.558,0,0,1-.558.558H7.294a.558.558,0,0,1-.558-.558v-.558H3.6a1.673,1.673,0,0,1-1.589-1.145L0,77.41V89.6a1.677,1.677,0,0,0,1.675,1.675H17.38A1.677,1.677,0,0,0,19.055,89.6V77.411l-2.007,6.022A1.673,1.673,0,0,1,15.459,84.578Zm0,0" transform="translate(0 -74.529)" fill="#a1a9b7"/>
    <path id="Path_345" data-name="Path 345" d="M36.609,0H32.143a1.677,1.677,0,0,0-1.675,1.675v.558H25.809L27.914,8.55a.558.558,0,0,0,.53.382h3.14V8.374a.558.558,0,0,1,.558-.558h4.466a.558.558,0,0,1,.558.558v.558h3.14a.558.558,0,0,0,.53-.382l2.106-6.317H38.283V1.675A1.677,1.677,0,0,0,36.609,0ZM31.585,2.233V1.675a.559.559,0,0,1,.558-.558h4.466a.559.559,0,0,1,.558.558v.558Zm0,0" transform="translate(-24.848)" fill="#a1a9b7"/>
  </g>
</svg>
