<svg id="_352510_local_phone_icon_3_" data-name="352510_local_phone_icon (3)" xmlns="http://www.w3.org/2000/svg" width="22.355" height="22.355" viewBox="0 0 22.355 22.355">
  <path id="Path_6954" data-name="Path 6954" d="M0,0H22.355V22.355H0Z" fill="none"/>
  <path id="Path_6955" data-name="Path 6955" d="M9.377,13.261a14.028,14.028,0,0,0,6.138,6.134l2.049-2.054a.935.935,0,0,1,.945-.228,10.6,10.6,0,0,0,3.325.531.928.928,0,0,1,.931.931v3.26a.928.928,0,0,1-.931.931A15.834,15.834,0,0,1,6,6.931.931.931,0,0,1,6.931,6h3.26a.928.928,0,0,1,.931.931,10.6,10.6,0,0,0,.531,3.325.935.935,0,0,1-.228.945Z" transform="translate(-3.206 -3.206)" fill="#fa7400"/>
</svg>
