<svg xmlns="http://www.w3.org/2000/svg" width="21.055" height="21.042" viewBox="0 0 21.055 21.042">
  <g id="_019---Star" data-name="019---Star" transform="translate(0 0)">
    <path id="Shape" d="M12.16.415l2.7,5.736a.714.714,0,0,0,.535.408l6.041.92a.755.755,0,0,1,.394,1.271l-4.371,4.465a.768.768,0,0,0-.2.659l1.032,6.3a.719.719,0,0,1-1.032.785l-5.4-2.976a.682.682,0,0,0-.662,0l-5.4,2.976a.719.719,0,0,1-1.032-.785l1.032-6.3a.767.767,0,0,0-.2-.659L1.213,8.749a.755.755,0,0,1,.394-1.271l6.041-.92a.714.714,0,0,0,.535-.408l2.7-5.736a.7.7,0,0,1,1.275,0Z" transform="translate(-0.995 0)" fill="#e6e6e6" fill-rule="evenodd"/>
    <path id="Shape-2" data-name="Shape" d="M14.2,4.758A22,22,0,0,0,9.419,8.213a20.8,20.8,0,0,0-3.84,5L1.209,8.75a.754.754,0,0,1,.4-1.27l6.039-.922a.725.725,0,0,0,.537-.406l2.7-5.738a.7.7,0,0,1,1.278,0Z" transform="translate(-0.993 0)" fill="#e6e6e6" fill-rule="evenodd"/>
  </g>
</svg>
