<svg xmlns="http://www.w3.org/2000/svg" width="15.28" height="18.315" viewBox="0 0 15.28 18.315">
  <g id="user" transform="translate(0 0)">
    <path id="Path_338" data-name="Path 338" d="M91.443,8.823A4.268,4.268,0,0,0,94.562,7.53a4.268,4.268,0,0,0,1.292-3.119,4.269,4.269,0,0,0-1.292-3.119,4.41,4.41,0,0,0-6.238,0,4.268,4.268,0,0,0-1.292,3.119A4.268,4.268,0,0,0,88.324,7.53,4.269,4.269,0,0,0,91.443,8.823Zm0,0" transform="translate(-83.919 0)" fill="#a1a9b7"/>
    <path id="Path_339" data-name="Path 339" d="M15.243,252.553a10.9,10.9,0,0,0-.148-1.157,9.118,9.118,0,0,0-.285-1.164,5.747,5.747,0,0,0-.478-1.085,4.1,4.1,0,0,0-.721-.94,3.18,3.18,0,0,0-1.036-.651,3.581,3.581,0,0,0-1.323-.239,1.343,1.343,0,0,0-.717.3c-.215.14-.466.3-.747.482a4.282,4.282,0,0,1-.966.426,3.753,3.753,0,0,1-2.364,0,4.272,4.272,0,0,1-.966-.426c-.278-.178-.529-.34-.748-.482a1.341,1.341,0,0,0-.717-.3,3.576,3.576,0,0,0-1.323.24,3.177,3.177,0,0,0-1.036.651,4.1,4.1,0,0,0-.721.94,5.759,5.759,0,0,0-.478,1.085A9.14,9.14,0,0,0,.185,251.4a10.857,10.857,0,0,0-.148,1.158c-.024.35-.037.714-.037,1.082a3.041,3.041,0,0,0,.9,2.3,3.251,3.251,0,0,0,2.328.849H12.05a3.251,3.251,0,0,0,2.327-.849,3.04,3.04,0,0,0,.9-2.3c0-.369-.013-.733-.037-1.082Zm0,0" transform="translate(0 -238.469)" fill="#a1a9b7"/>
  </g>
</svg>
