<svg id="_3146791_whatsapp_logo_icon" data-name="3146791_whatsapp_logo_icon" xmlns="http://www.w3.org/2000/svg" width="26.091" height="26.085" viewBox="0 0 26.091 26.085">
  <path id="Path_6982" data-name="Path 6982" d="M26.045,13A13.045,13.045,0,0,0,15.131,33.191l-1.68,5.691,5.911-1.637A13.044,13.044,0,1,0,26.045,13Z" transform="translate(-13 -13)" fill="#25d366"/>
  <path id="Path_6983" data-name="Path 6983" d="M136.8,144.835a.473.473,0,0,0-.274-.392l-3.162-1.449a.3.3,0,0,0-.349.075l-1.428,1.611a.391.391,0,0,1-.446.107,10.141,10.141,0,0,1-2.749-1.691,10.244,10.244,0,0,1-2.314-2.872,2.5,2.5,0,0,0,.982-1.283.019.019,0,0,1,.005-.011,2.176,2.176,0,0,0-.048-1.417,15.13,15.13,0,0,0-1.074-2.448c-.038-.038-.081-.075-.081-.075a.948.948,0,0,0-.591-.236c-.075-.005-.156-.005-.242-.005a4.492,4.492,0,0,0-.628.016,1.621,1.621,0,0,0-1,.628,4.246,4.246,0,0,0-.752,1.364c-.016.054-.032.1-.048.156a3.84,3.84,0,0,0,.086,2.33,12.68,12.68,0,0,0,1.149,2.427,13.428,13.428,0,0,0,2.593,3.06,12.391,12.391,0,0,0,3.205,2.287,11.121,11.121,0,0,0,3.484,1.015,3.843,3.843,0,0,0,1.7-.236,3.593,3.593,0,0,0,.837-.451,2.7,2.7,0,0,0,1.122-1.782v-.016A3.211,3.211,0,0,0,136.8,144.835Z" transform="translate(-116.589 -128.209)" fill="#fff"/>
</svg>
